<?xml version="1.0" encoding="utf-8"?>
<!-- Generator: Adobe Illustrator 21.1.0, SVG Export Plug-In . SVG Version: 6.00 Build 0)  -->
<svg version="1.1" id="Camada_1" xmlns="http://www.w3.org/2000/svg" xmlns:xlink="http://www.w3.org/1999/xlink" x="0px" y="0px"
	 viewBox="0 0 162 160" style="enable-background:new 0 0 162 160;" xml:space="preserve">
<style type="text/css">
	.st0{fill:#160028;}
	.st1{fill:#4D007F;}
	.st2{fill:#FFFFFF;}
</style>
<g>
	<circle class="st0" cx="81" cy="82.5" r="77"/>
	<circle class="st1" cx="81" cy="77.5" r="77"/>
	<g>
		<path class="st2" d="M112.1,84.2c2.6,3.5,4,7.9,4,13c0,7.1-2.5,12.6-7.6,16.7c-5.1,4-12.1,6-21,6H57c-2.3,0-4.1-0.6-5.4-1.9
			c-1.3-1.3-1.9-3-1.9-5.3V43.8c0-2.3,0.6-4.1,1.9-5.3c1.3-1.3,3.1-1.9,5.4-1.9h29.3c8.7,0,15.5,1.9,20.4,5.7
			c4.9,3.8,7.4,9.2,7.4,16c0,4.4-1.2,8.2-3.5,11.5c-2.3,3.2-5.5,5.6-9.6,7.1C105.7,78.2,109.4,80.6,112.1,84.2z M64.5,71.7h19.3
			c10.5,0,15.7-3.9,15.7-11.7c0-3.9-1.3-6.8-3.9-8.7c-2.6-1.9-6.5-2.8-11.8-2.8H64.5V71.7z M97.8,105.1c2.5-2,3.8-5,3.8-9.2
			c0-4.2-1.3-7.3-3.8-9.3c-2.6-2-6.6-3.1-12-3.1H64.5V108h21.3C91.3,108,95.3,107.1,97.8,105.1z"/>
	</g>
</g>
</svg>
